HIERARCHY
ROOT Hips
{
	OFFSET 0.000000 0.000000 0.000000
	CHANNELS 6 Xposition Yposition Zposition Xrotation Yrotation Zrotation
	JOINT LeftUpLeg_virtual
	{
		OFFSET 0.000000 0.000000 0.000000
		CHANNELS 3 Xrotation Yrotation Zrotation
		JOINT LeftUpLeg
		{
			OFFSET 13.026900 -6.336304 -1.092800
			CHANNELS 3 Xrotation Yrotation Zrotation
			JOINT LeftLeg
			{
				OFFSET 0.524474 -46.096886 9.782700
				CHANNELS 3 Xrotation Yrotation Zrotation
				JOINT LeftFoot
				{
					OFFSET -0.524474 -53.427422 -12.948200
					CHANNELS 3 Xrotation Yrotation Zrotation
					JOINT LeftToeBase
					{
						OFFSET 0.192200 -14.009700 16.364100
						CHANNELS 3 Xrotation Yrotation Zrotation
						JOINT LeftToe_End
						{
							OFFSET -1.784700 -0.561700 9.474800
							CHANNELS 3 Xrotation Yrotation Zrotation
							End Site
							{
								OFFSET 0 0 0
							}
						}
					}
				}
			}
		}
	}
	JOINT RightUpLeg_virtual
	{
		OFFSET 0.000000 0.000000 0.000000
		CHANNELS 3 Xrotation Yrotation Zrotation
		JOINT RightUpLeg
		{
			OFFSET -12.883000 -6.336304 -1.092800
			CHANNELS 3 Xrotation Yrotation Zrotation
			JOINT RightLeg
			{
				OFFSET -0.524587 -46.096825 9.782800
				CHANNELS 3 Xrotation Yrotation Zrotation
				JOINT RightFoot
				{
					OFFSET 0.524587 -53.427383 -12.948300
					CHANNELS 3 Xrotation Yrotation Zrotation
					JOINT RightToeBase
					{
						OFFSET -0.192200 -14.009700 16.364100
						CHANNELS 3 Xrotation Yrotation Zrotation
						JOINT RightToe_End
						{
							OFFSET 1.784700 -0.561700 9.474800
							CHANNELS 3 Xrotation Yrotation Zrotation
							End Site
							{
								OFFSET 0 0 0
							}
						}
					}
				}
			}
		}
	}
	JOINT Spine_virtual
	{
		OFFSET 0.000000 0.000000 0.000000
		CHANNELS 3 Xrotation Yrotation Zrotation
		JOINT Spine
		{
			OFFSET 0.072000 7.257294 -0.789700
			CHANNELS 3 Xrotation Yrotation Zrotation
			JOINT Spine1
			{
				OFFSET 0.000000 12.508769 -0.658067
				CHANNELS 3 Xrotation Yrotation Zrotation
				JOINT Spine1_split
				{
					OFFSET 0.000000 12.508769 -0.658067
					CHANNELS 3 Xrotation Yrotation Zrotation
					JOINT Spine2
					{
						OFFSET 0.000000 12.508769 -0.658067
						CHANNELS 3 Xrotation Yrotation Zrotation
						JOINT Neck_virtual
						{
							OFFSET 0.000000 0.000000 0.000000
							CHANNELS 3 Xrotation Yrotation Zrotation
							JOINT Neck
							{
								OFFSET 0.000000 14.033295 7.520400
								CHANNELS 3 Xrotation Yrotation Zrotation
								JOINT Head
								{
									OFFSET 0.000000 8.198502 5.703100
									CHANNELS 3 Xrotation Yrotation Zrotation
									JOINT HeadTop_End
									{
										OFFSET 0.000000 17.760803 13.332701
										CHANNELS 3 Xrotation Yrotation Zrotation
										End Site
										{
											OFFSET 0 0 0
										}
									}
								}
							}
						}
						JOINT LeftShoulder_virtual
						{
							OFFSET 0.000000 0.000000 0.000000
							CHANNELS 3 Xrotation Yrotation Zrotation
							JOINT LeftShoulder
							{
								OFFSET 6.292450 5.785301 -0.669000
								CHANNELS 3 Xrotation Yrotation Zrotation
								JOINT LeftShoulder_split
								{
									OFFSET 6.292450 5.785301 -0.669000
									CHANNELS 3 Xrotation Yrotation Zrotation
									JOINT LeftArm
									{
										OFFSET 13.907140 -6.093903 1.965100
										CHANNELS 3 Xrotation Yrotation Zrotation
										JOINT LeftForeArm
										{
											OFFSET 34.140198 0.000000 0.000000
											CHANNELS 3 Xrotation Yrotation Zrotation
											JOINT LeftHand
											{
												OFFSET 40.960209 0.000000 0.000000
												CHANNELS 3 Xrotation Yrotation Zrotation
												End Site
												{
													OFFSET 0 0 0
												}
											}
										}
									}
								}
							}
						}
						JOINT RightShoulder_virtual
						{
							OFFSET 0.000000 0.000000 0.000000
							CHANNELS 3 Xrotation Yrotation Zrotation
							JOINT RightShoulder
							{
								OFFSET -6.292450 5.785301 -0.669000
								CHANNELS 3 Xrotation Yrotation Zrotation
								JOINT RightShoulder_split
								{
									OFFSET -6.292450 5.785301 -0.669000
									CHANNELS 3 Xrotation Yrotation Zrotation
									JOINT RightArm
									{
										OFFSET -13.907140 -6.093903 1.965100
										CHANNELS 3 Xrotation Yrotation Zrotation
										JOINT RightForeArm
										{
											OFFSET -34.140198 0.000000 0.000000
											CHANNELS 3 Xrotation Yrotation Zrotation
											JOINT RightHand
											{
												OFFSET -40.960209 0.000000 0.000000
												CHANNELS 3 Xrotation Yrotation Zrotation
												End Site
												{
													OFFSET 0 0 0
												}
											}
										}
									}
								}
							}
						}
					}
				}
			}
		}
	}
}
MOTION
Frames: 7
Frame Time: 0.03333333
-1.631242 18.538445 10.918430 0.000000 0.000000 0.000000 -89.213069 -3.425023 -2.771837 -26.196045 14.513626 -2.153909 27.541519 -4.023522 -1.349986 4.534363 5.433108 7.246153 6.324756 -0.378895 0.860931 0.000000 0.000000 0.000000 -90.784177 -3.800751 -5.674142 -16.085031 -6.973489 -4.906357 16.085384 -2.071851 2.249129 12.330640 -3.289732 22.054344 -2.052675 -0.684992 -0.312279 0.000000 0.000000 0.000000 -87.227526 -3.792438 -5.074361 3.151436 2.890192 1.409830 -1.305687 0.956298 -0.100747 0.475481 0.377153 -0.273819 0.000000 0.000000 0.000000 -2.195275 0.438670 0.245684 2.403735 0.708620 -0.176929 10.502927 -5.119319 10.209173 0.000000 0.000000 0.000000 -2.868740 1.004018 0.209578 0.940164 -13.945975 -3.446702 -2.896958 0.116819 -3.947975 27.351993 0.546890 -69.281935 -178.926545 -39.308975 -178.125583 0.000000 0.000000 0.000000 -2.127325 0.696640 -0.669914 1.098904 2.553430 0.485441 1.052671 4.604710 0.330466 12.460118 7.103902 72.872996 -179.755389 46.184571 -179.419289 0.000000 0.000000 0.000000 
-1.630259 18.537712 10.919342 0.000000 0.000000 0.000000 -89.211662 -3.425378 -2.772012 -26.198510 14.510839 -2.155166 27.544136 -4.022737 -1.350192 4.535652 5.433489 7.244489 6.324408 -0.379012 0.860481 0.000000 0.000000 0.000000 -90.780973 -3.798387 -5.670615 -16.084240 -6.976858 -4.908187 16.082990 -2.071217 2.249936 12.331383 -3.292107 22.051218 -2.051888 -0.685360 -0.311544 0.000000 0.000000 0.000000 -87.226304 -3.793252 -5.076241 3.152749 2.889671 1.409404 -1.307578 0.956049 -0.100811 0.476795 0.384765 -0.275121 0.000000 0.000000 0.000000 -2.196571 0.437780 0.245063 2.400073 0.707849 -0.177639 10.504431 -5.118657 10.206518 0.000000 0.000000 0.000000 -2.872101 1.004286 0.208696 0.942117 -13.946007 -3.440417 -2.900228 0.116699 -3.957318 27.354629 0.553198 -69.290773 -178.922447 -39.297384 -178.121198 0.000000 0.000000 0.000000 -2.128852 0.696438 -0.670396 1.096638 2.550972 0.481449 1.062586 4.610757 0.329015 12.467644 7.101433 72.872600 -179.756454 46.166939 -179.419261 0.000000 0.000000 0.000000 
-1.629681 18.536285 10.920517 0.000000 0.000000 0.000000 -89.208411 -3.425279 -2.772363 -26.204121 14.508724 -2.155324 27.551607 -4.021200 -1.351096 4.536006 5.433896 7.243822 6.324274 -0.379021 0.860674 0.000000 0.000000 0.000000 -90.776185 -3.795238 -5.666762 -16.085195 -6.983337 -4.910689 16.081054 -2.071380 2.251601 12.330323 -3.297472 22.043220 -2.046717 -0.685581 -0.310397 0.000000 0.000000 0.000000 -87.224179 -3.794733 -5.078989 3.152702 2.887257 1.410689 -1.309837 0.955519 -0.102066 0.475756 0.390362 -0.277001 0.000000 0.000000 0.000000 -2.196834 0.437425 0.243238 2.399042 0.708989 -0.175549 10.505271 -5.119607 10.208221 0.000000 0.000000 0.000000 -2.875337 1.004668 0.207857 0.945383 -13.946270 -3.419962 -2.901542 0.118631 -3.965645 27.360681 0.566078 -69.309474 -178.917830 -39.280630 -178.117496 0.000000 0.000000 0.000000 -2.131244 0.695827 -0.671552 1.094351 2.545115 0.474408 1.075366 4.623338 0.329096 12.477612 7.101282 72.873952 -179.754815 46.149771 -179.418879 0.000000 0.000000 0.000000 
-1.629348 18.534164 10.921032 0.000000 0.000000 0.000000 -89.203336 -3.425524 -2.772910 -26.211064 14.507166 -2.155058 27.561581 -4.019206 -1.352006 4.535046 5.434417 7.243424 6.323621 -0.378941 0.861513 0.000000 0.000000 0.000000 -90.769758 -3.791987 -5.663016 -16.088845 -6.992270 -4.914172 16.079654 -2.070901 2.254014 12.330120 -3.303615 22.034090 -2.038997 -0.685544 -0.309438 0.000000 0.000000 0.000000 -87.221222 -3.796589 -5.081715 3.150643 2.883288 1.413390 -1.312416 0.954615 -0.103746 0.474624 0.393207 -0.277535 0.000000 0.000000 0.000000 -2.196032 0.437787 0.241059 2.400604 0.711832 -0.171721 10.503244 -5.123556 10.214003 0.000000 0.000000 0.000000 -2.878341 1.005471 0.207710 0.948910 -13.944578 -3.393487 -2.905076 0.120182 -3.970258 27.367306 0.581577 -69.329630 -178.913759 -39.266344 -178.114231 0.000000 0.000000 0.000000 -2.134480 0.695057 -0.672701 1.092195 2.537481 0.466878 1.087936 4.638668 0.330427 12.488579 7.101355 72.873809 -179.750457 46.137969 -179.418906 0.000000 0.000000 0.000000 
-1.629138 18.531738 10.920441 0.000000 0.000000 0.000000 -89.196533 -3.426847 -2.773740 -26.217019 14.505739 -2.155001 27.571056 -4.016885 -1.352267 4.532400 5.435155 7.243423 6.321910 -0.378808 0.862778 0.000000 0.000000 0.000000 -90.761944 -3.789095 -5.659299 -16.094793 -7.002602 -4.917868 16.078199 -2.068537 2.256637 12.331820 -3.309098 22.026969 -2.032239 -0.685353 -0.309238 0.000000 0.000000 0.000000 -87.217192 -3.798529 -5.083469 3.146600 2.878401 1.417550 -1.315356 0.953600 -0.104960 0.475936 0.391088 -0.276536 0.000000 0.000000 0.000000 -2.194351 0.439043 0.239616 2.403700 0.715950 -0.167605 10.495498 -5.129499 10.222455 0.000000 0.000000 0.000000 -2.880633 1.006936 0.208735 0.951749 -13.937199 -3.370966 -2.909965 0.118360 -3.974786 27.372128 0.594746 -69.341638 -178.910931 -39.258104 -178.111553 0.000000 0.000000 0.000000 -2.137799 0.694542 -0.673052 1.090380 2.530734 0.461012 1.097372 4.656431 0.330149 12.498253 7.100371 72.868986 -179.743832 46.132030 -179.420013 0.000000 0.000000 0.000000 
-1.628698 18.528748 10.918945 0.000000 0.000000 0.000000 -89.188590 -3.428533 -2.773921 -26.220920 14.504573 -2.155652 27.577223 -4.014006 -1.351692 4.527750 5.436343 7.244598 6.320506 -0.378652 0.863871 0.000000 0.000000 0.000000 -90.754219 -3.787485 -5.656189 -16.100959 -7.013127 -4.921025 16.075962 -2.064466 2.258586 12.333671 -3.314704 22.021966 -2.026448 -0.685176 -0.309853 0.000000 0.000000 0.000000 -87.212240 -3.800684 -5.083998 3.141113 2.873495 1.423131 -1.318668 0.952912 -0.104799 0.479052 0.386138 -0.273066 0.000000 0.000000 0.000000 -2.192079 0.440993 0.239799 2.406572 0.720923 -0.164529 10.481122 -5.137409 10.232452 0.000000 0.000000 0.000000 -2.882752 1.009267 0.211038 0.952817 -13.922154 -3.362433 -2.918323 0.112314 -3.979155 27.374478 0.605968 -69.337601 -178.910016 -39.258746 -178.109135 0.000000 0.000000 0.000000 -2.141119 0.694588 -0.672178 1.089457 2.528119 0.457859 1.103536 4.674967 0.329591 12.505485 7.098382 72.857983 -179.735991 46.127857 -179.422034 0.000000 0.000000 0.000000 
-1.627845 18.525330 10.915970 0.000000 0.000000 0.000000 -89.181582 -3.431027 -2.773789 -26.222233 14.503172 -2.156794 27.577884 -4.011053 -1.350435 4.521978 5.437979 7.247154 6.320442 -0.378489 0.864455 0.000000 0.000000 0.000000 -90.748694 -3.788081 -5.653953 -16.106040 -7.022661 -4.923251 16.073296 -2.060356 2.259610 12.334167 -3.322093 22.016956 -2.019315 -0.685190 -0.310763 0.000000 0.000000 0.000000 -87.206578 -3.802409 -5.082325 3.135282 2.868898 1.430284 -1.322509 0.952811 -0.103174 0.484365 0.379992 -0.268835 0.000000 0.000000 0.000000 -2.189756 0.443392 0.241425 2.408037 0.726312 -0.163750 10.461449 -5.145713 10.242048 0.000000 0.000000 0.000000 -2.884645 1.011960 0.214266 0.951458 -13.899938 -3.372559 -2.925088 0.107879 -3.981132 27.368780 0.619396 -69.316298 -178.911109 -39.267840 -178.106280 0.000000 0.000000 0.000000 -2.143946 0.695211 -0.670177 1.089408 2.530394 0.457490 1.109968 4.693827 0.329700 12.510469 7.099933 72.842677 -179.729857 46.122283 -179.422758 0.000000 0.000000 0.000000 
